<?xml version="1.0" encoding="UTF-8"?>
<svg id="Layer_1" xmlns="http://www.w3.org/2000/svg" version="1.1" viewBox="0 0 140 140">
  <!-- Generator: Adobe Illustrator 29.0.1, SVG Export Plug-In . SVG Version: 2.1.0 Build 192)  -->
  <defs>
    <style>
      .st0 {
        fill: #24d37f;
        fill-rule: evenodd;
      }

      .st1 {
        fill: #0f0f0f;
      }
    </style>
  </defs>
  <rect class="st1" x="0" y="0" width="140" height="140" rx="16.3" ry="16.3"/>
  <path class="st0" d="M46.3,48.1c6.4-3.3,11.9-5.2,16.5-5.8-3.6-4.8-10.4-9.7-20.5-14.5,1.5,3.5,2,6.3,1.5,8.5,2.5-.4,4.8-.2,6.7.8-8,1.7-14,5.1-17.9,10.2,0,0,1.1,2.5,3.3,7.5,0,0,2.2,0,6.7,0-7.6,3.2-16.6,9.6-11.8,18.9,4.8-4.7,10.7-11.1,17.8-11.1,0,0-2.1-6-6.4-18.1,2.7,2.5,4,3.7,4,3.7h0ZM70,45.2c1.9-3.6,5.9-7.6,12-12-6.5,2.3-10.5,4.7-12,7-1.5-2.4-5.5-4.7-12-7,6.1,4.4,10.1,8.4,12,12h0ZM91.4,62.5c7.1,0,13,6.5,17.8,11.1,4.7-9.2-4.2-15.6-11.8-18.9,4.5,0,6.7,0,6.7,0,2.2-5,3.3-7.5,3.3-7.5-3.9-5.1-9.9-8.5-17.9-10.2,1.9-1,4.2-1.2,6.7-.8-.5-2.1,0-5,1.5-8.5-10.1,4.8-16.9,9.7-20.5,14.5,4.6.6,10.1,2.5,16.5,5.8,0,0,1.3-1.2,4-3.7-4.2,12.1-6.4,18.1-6.4,18.1h0ZM95.1,74.8c4.8,3.1,7.9,3.8,12.7-.2,0,0-1.4-1.4-4.3-4.1-1.4.7-3,.9-5,.5,0,0-.8-1.5-2.3-4.6-.2,3.3-.7,6-1.3,8.3h0ZM77,106.7c-.3,1.3,0,2.2.9,2.8,1.5.9,3.4,1.2,5.8,1,.2-6.5-3.5-6.4-3.6-11.5-1.5,2.8-2.6,5.4-3.1,7.8h0ZM62.6,98c1.3,6.4,3.8,11.1,7.4,14.2,3.6-3.1,6-7.8,7.4-14.2-4-6.8-10.7-6.8-14.7,0h0ZM59.9,98.9c-.1,5.1-3.8,5-3.6,11.5,2.4.2,4.3,0,5.8-1,.8-.5,1.1-1.5.9-2.8-.5-2.4-1.5-5-3.1-7.8h0ZM60.7,67.6c-2.6-5-34.2,18.3-20.6,27.9,3.7-6.8,9.6-12.9,17.8-18.4.3-4,.4-6,.4-6,10.1,13.2-21.7,32.5-4.6,39,2.5-15.4,11.8-17,13.9-25.4-2.6-3-3.9-5.8-3.9-8.3,4.1-1.7,8.3-1.7,12.4,0,0,2.5-1.3,5.2-3.9,8.3,2.1,8.3,11.5,9.9,13.9,25.4,17.2-6.5-14.6-25.8-4.6-39,0,0,.1,2,.4,6,8.2,5.5,14.2,11.7,17.8,18.4,13.6-9.6-18-32.9-20.6-27.9-1.5,2.8-3.2,5.1-3,7-7.8-17.3,12-10.4,11.5-22.6-8.5-6-27.1-6-35.6,0-.5,12.2,19,5.3,11.2,22.6.2-1.9-1.2-4.2-2.7-7h0ZM44.9,74.8c-.6-2.3-1-5.1-1.3-8.3-1.5,3-2.3,4.6-2.3,4.6-1.9.4-3.6.2-5-.5-2.8,2.7-4.3,4.1-4.3,4.1,4.8,3.9,7.9,3.2,12.7.2h0Z"/>
</svg>